<?xml version="1.0" standalone="no"?>
<!DOCTYPE svg PUBLIC "-//W3C//DTD SVG 20010904//EN"
 "http://www.w3.org/TR/2001/REC-SVG-20010904/DTD/svg10.dtd">
<svg version="1.0" xmlns="http://www.w3.org/2000/svg"
 width="376.000000pt" height="401.000000pt" viewBox="0 0 376.000000 401.000000"
 preserveAspectRatio="xMidYMid meet">

<g transform="translate(0.000000,401.000000) scale(0.100000,-0.100000)"
fill="#000000" stroke="none">
<path d="M1693 3692 c-12 -2 -34 -17 -48 -33 -22 -27 -25 -40 -25 -109 0 -76
1 -79 32 -105 26 -22 39 -26 67 -21 19 3 46 17 60 31 22 21 26 36 29 98 4 67
2 76 -22 104 -26 31 -53 41 -93 35z m57 -71 c13 -25 13 -97 0 -120 -13 -25
-37 -33 -61 -21 -16 9 -19 22 -19 73 0 36 5 68 12 75 18 18 56 14 68 -7z"/>
<path d="M1850 3566 l0 -136 25 0 c24 0 25 3 25 55 0 47 3 55 19 55 13 0 26
-16 42 -54 23 -53 25 -55 73 -61 41 -6 52 -4 63 11 7 10 13 24 13 32 0 10 7
12 23 8 12 -3 32 -6 45 -6 17 0 26 -8 33 -30 8 -22 17 -30 35 -30 13 0 24 2
24 4 0 2 -21 63 -46 134 -42 121 -65 157 -84 135 -4 -4 -26 -61 -50 -125 -23
-65 -44 -118 -46 -118 -2 0 -15 22 -29 50 l-25 50 20 20 c26 26 26 80 1 111
-16 19 -30 24 -90 27 l-71 4 0 -136z m128 72 c7 -7 12 -15 12 -19 0 -18 -34
-39 -61 -39 -27 0 -29 3 -29 35 0 33 2 35 33 35 18 0 38 -5 45 -12z m197 -85
c6 -31 5 -33 -20 -33 -21 0 -26 4 -21 16 3 9 9 27 12 41 8 30 19 20 29 -24z"/>
<path d="M1460 3671 l-45 -6 -3 -132 -3 -133 26 0 c23 0 25 3 25 50 0 49 0 49
38 56 54 10 72 22 88 59 10 24 11 41 5 59 -11 28 -48 57 -71 54 -8 0 -35 -4
-60 -7z m64 -47 c26 -10 20 -53 -10 -64 -44 -17 -54 -13 -54 24 0 32 6 39 42
45 3 0 13 -2 22 -5z"/>
<path d="M2301 3634 c-17 -22 -21 -41 -21 -101 0 -72 1 -76 34 -109 38 -38 85
-45 123 -19 32 22 36 52 7 58 -13 2 -29 -2 -35 -9 -16 -19 -43 -17 -62 4 -20
22 -23 122 -5 140 19 19 42 14 66 -13 12 -14 31 -25 41 -25 18 0 19 3 9 30
-24 70 -117 95 -157 44z"/>
<path d="M2672 3648 c-12 -12 -17 -38 -7 -38 12 0 55 33 55 41 0 13 -34 11
-48 -3z"/>
<path d="M1250 3636 l-55 -11 -3 -133 -3 -133 23 3 c20 3 23 9 26 61 3 49 6
57 22 57 14 0 28 -16 45 -51 22 -43 29 -49 48 -43 32 9 32 9 3 60 l-26 46 20
25 c23 29 26 81 8 105 -19 23 -46 27 -108 14z m70 -65 c0 -20 -6 -31 -17 -35
-10 -2 -28 -7 -40 -11 -21 -6 -23 -3 -23 29 0 28 4 35 23 39 52 10 57 8 57
-22z"/>
<path d="M2490 3507 c0 -125 1 -135 19 -140 11 -3 22 -2 25 1 10 9 7 262 -3
262 -5 0 -16 3 -25 6 -14 5 -16 -10 -16 -129z"/>
<path d="M2613 3598 c-32 -16 -46 -59 -41 -134 4 -62 7 -69 41 -100 44 -40 95
-46 127 -14 16 16 20 33 20 93 0 86 -22 130 -75 153 -40 16 -42 16 -72 2z m81
-70 c19 -27 21 -119 4 -136 -34 -34 -78 9 -78 77 0 27 3 56 6 65 9 23 50 19
68 -6z"/>
<path d="M1033 3584 c-53 -26 -68 -59 -68 -145 0 -62 4 -81 19 -98 30 -33 79
-28 124 13 36 33 37 37 40 115 4 75 2 81 -22 105 -29 30 -48 32 -93 10z m65
-98 c4 -67 -4 -95 -33 -108 -38 -17 -55 4 -55 66 0 65 21 98 58 94 25 -3 27
-7 30 -52z"/>
<path d="M2800 3425 l0 -135 25 0 c24 0 25 2 26 73 l0 72 46 -90 c45 -90 57
-105 81 -105 10 0 12 30 10 133 -3 128 -4 132 -25 135 -22 3 -23 0 -24 -70 l0
-73 -46 90 c-25 50 -51 93 -57 97 -32 22 -36 9 -36 -127z"/>
<path d="M840 3527 c-49 -25 -70 -72 -70 -157 0 -64 3 -80 20 -95 24 -22 82
-15 112 12 21 19 48 65 48 82 0 17 -33 0 -63 -31 -41 -44 -61 -34 -65 32 -4
73 4 98 34 112 21 10 27 9 35 -4 10 -19 59 -12 59 8 0 22 -38 54 -62 54 -13 0
-34 -6 -48 -13z"/>
<path d="M1585 3304 c-84 -8 -300 -36 -303 -38 -1 -2 -12 -63 -23 -137 -19
-128 -39 -559 -26 -559 3 0 47 16 99 36 292 111 548 151 648 99 66 -34 84
-106 55 -219 -29 -112 -112 -215 -236 -296 -51 -33 -379 -200 -393 -200 -2 0
-19 -7 -39 -15 l-35 -15 20 -67 c27 -90 89 -246 134 -336 42 -84 154 -257 166
-257 16 0 121 71 194 131 153 125 311 319 417 511 91 164 180 441 208 648 17
126 17 417 0 558 -16 133 -8 126 -156 142 -98 12 -651 22 -730 14z"/>
<path d="M1082 3230 c-106 -24 -280 -84 -357 -122 -33 -17 -61 -31 -62 -32 -5
-4 -33 -205 -49 -356 -25 -219 -25 -705 -1 -880 47 -333 111 -533 224 -701 62
-90 182 -228 256 -291 l55 -48 88 25 c135 40 268 91 402 157 l122 60 -87 92
c-260 272 -442 704 -510 1213 -23 176 -23 579 0 755 19 144 20 148 10 147 -5
0 -45 -9 -91 -19z"/>
<path d="M2554 3218 c14 -72 27 -272 24 -388 l-3 -125 100 -27 c55 -14 113
-31 129 -37 l28 -11 -7 -83 c-29 -365 -98 -644 -219 -888 -178 -356 -451 -621
-845 -819 -120 -60 -165 -78 -325 -135 l-118 -42 38 -30 c111 -87 493 -323
523 -323 20 0 214 114 368 216 197 130 326 235 474 383 223 224 304 367 373
661 89 374 94 875 15 1423 l-11 78 -67 33 c-90 45 -194 82 -331 117 -150 38
-154 38 -146 -3z"/>
</g>
</svg>
